<svg width="1688" height="287" viewBox="0 0 1688 287" fill="none" xmlns="http://www.w3.org/2000/svg">
<path d="M125 262.5C194.036 262.5 250 206.759 250 138C250 69.2406 194.036 13.5 125 13.5C55.9644 13.5 0 69.2406 0 138C0 206.759 55.9644 262.5 125 262.5Z" fill="url(#paint0_linear_111_27)"/>
<path d="M250 262.5C319.036 262.5 375 206.759 375 138C375 69.2406 319.036 13.5 250 13.5C180.964 13.5 125 69.2406 125 138C125 206.759 180.964 262.5 250 262.5Z" fill="url(#paint1_linear_111_27)"/>
<path d="M391.435 233V43.9091H466.037C480.317 43.9091 492.505 46.4635 502.599 51.5724C512.756 56.6198 520.481 63.7907 525.774 73.0852C531.129 82.3182 533.807 93.1823 533.807 105.678C533.807 118.234 531.098 129.037 525.682 138.085C520.265 147.072 512.417 153.966 502.138 158.767C491.92 163.568 479.548 165.969 465.021 165.969H415.071V133.838H458.558C466.191 133.838 472.531 132.792 477.578 130.699C482.625 128.606 486.38 125.467 488.842 121.281C491.366 117.096 492.628 111.894 492.628 105.678C492.628 99.3991 491.366 94.1056 488.842 89.7969C486.38 85.4882 482.595 82.2258 477.486 80.0099C472.438 77.7325 466.068 76.5938 458.374 76.5938H431.413V233H391.435ZM493.551 146.949L540.547 233H496.413L450.433 146.949H493.551ZM600.961 235.678C591.913 235.678 583.85 234.108 576.771 230.969C569.692 227.768 564.091 223.059 559.967 216.842C555.905 210.564 553.873 202.747 553.873 193.391C553.873 185.512 555.32 178.895 558.213 173.54C561.106 168.185 565.045 163.876 570.031 160.614C575.017 157.351 580.68 154.889 587.02 153.227C593.421 151.565 600.13 150.396 607.147 149.719C615.396 148.857 622.043 148.057 627.091 147.318C632.138 146.518 635.8 145.348 638.078 143.81C640.355 142.271 641.494 139.993 641.494 136.977V136.423C641.494 130.576 639.647 126.052 635.954 122.851C632.323 119.65 627.152 118.05 620.443 118.05C613.364 118.05 607.732 119.619 603.547 122.759C599.361 125.836 596.591 129.714 595.237 134.392L558.859 131.438C560.706 122.82 564.337 115.372 569.754 109.094C575.171 102.754 582.157 97.8911 590.713 94.5057C599.33 91.0587 609.302 89.3352 620.628 89.3352C628.506 89.3352 636.047 90.2585 643.248 92.1051C650.512 93.9517 656.944 96.8139 662.545 100.692C668.208 104.57 672.671 109.555 675.933 115.649C679.195 121.681 680.826 128.914 680.826 137.347V233H643.525V213.334H642.417C640.14 217.766 637.093 221.674 633.277 225.06C629.46 228.384 624.875 231 619.52 232.908C614.164 234.754 607.978 235.678 600.961 235.678ZM612.226 208.533C618.012 208.533 623.12 207.394 627.552 205.116C631.984 202.777 635.462 199.638 637.986 195.699C640.509 191.759 641.771 187.297 641.771 182.311V167.261C640.54 168.062 638.847 168.8 636.693 169.477C634.6 170.093 632.23 170.678 629.584 171.232C626.937 171.724 624.29 172.186 621.643 172.616C618.996 172.986 616.596 173.324 614.441 173.632C609.825 174.309 605.793 175.386 602.346 176.864C598.899 178.341 596.222 180.341 594.314 182.865C592.405 185.327 591.451 188.405 591.451 192.098C591.451 197.453 593.39 201.546 597.268 204.378C601.208 207.148 606.193 208.533 612.226 208.533ZM710.541 286.182V91.1818H749.32V115.003H751.074C752.797 111.187 755.29 107.309 758.553 103.369C761.877 99.3684 766.185 96.0445 771.479 93.3977C776.834 90.6894 783.482 89.3352 791.422 89.3352C801.763 89.3352 811.304 92.0436 820.044 97.4602C828.785 102.815 835.771 110.91 841.003 121.743C846.235 132.515 848.851 146.026 848.851 162.276C848.851 178.095 846.297 191.452 841.188 202.347C836.14 213.18 829.246 221.397 820.506 226.999C811.827 232.538 802.101 235.308 791.33 235.308C783.697 235.308 777.203 234.046 771.848 231.523C766.555 228.999 762.215 225.829 758.83 222.013C755.444 218.135 752.859 214.226 751.074 210.287H749.874V286.182H710.541ZM749.043 162.091C749.043 170.524 750.212 177.879 752.551 184.158C754.89 190.436 758.276 195.33 762.708 198.838C767.139 202.285 772.525 204.009 778.865 204.009C785.267 204.009 790.683 202.254 795.115 198.746C799.547 195.176 802.902 190.251 805.179 183.973C807.518 177.633 808.688 170.339 808.688 162.091C808.688 153.904 807.549 146.703 805.271 140.486C802.994 134.269 799.639 129.406 795.208 125.898C790.776 122.389 785.328 120.635 778.865 120.635C772.464 120.635 767.047 122.328 762.615 125.713C758.245 129.098 754.89 133.9 752.551 140.116C750.212 146.333 749.043 153.658 749.043 162.091ZM874.273 286.182V91.1818H913.051V115.003H914.805C916.529 111.187 919.022 107.309 922.284 103.369C925.608 99.3684 929.917 96.0445 935.21 93.3977C940.565 90.6894 947.213 89.3352 955.153 89.3352C965.494 89.3352 975.035 92.0436 983.775 97.4602C992.516 102.815 999.502 110.91 1004.73 121.743C1009.97 132.515 1012.58 146.026 1012.58 162.276C1012.58 178.095 1010.03 191.452 1004.92 202.347C999.872 213.18 992.978 221.397 984.237 226.999C975.558 232.538 965.833 235.308 955.061 235.308C947.428 235.308 940.935 234.046 935.579 231.523C930.286 228.999 925.946 225.829 922.561 222.013C919.176 218.135 916.59 214.226 914.805 210.287H913.605V286.182H874.273ZM912.774 162.091C912.774 170.524 913.944 177.879 916.283 184.158C918.622 190.436 922.007 195.33 926.439 198.838C930.871 202.285 936.256 204.009 942.596 204.009C948.998 204.009 954.415 202.254 958.846 198.746C963.278 195.176 966.633 190.251 968.91 183.973C971.249 177.633 972.419 170.339 972.419 162.091C972.419 153.904 971.28 146.703 969.003 140.486C966.725 134.269 963.371 129.406 958.939 125.898C954.507 122.389 949.06 120.635 942.596 120.635C936.195 120.635 930.778 122.328 926.346 125.713C921.976 129.098 918.622 133.9 916.283 140.116C913.944 146.333 912.774 153.658 912.774 162.091ZM1038 286.182V91.1818H1076.78V115.003H1078.54C1080.26 111.187 1082.75 107.309 1086.02 103.369C1089.34 99.3684 1093.65 96.0445 1098.94 93.3977C1104.3 90.6894 1110.94 89.3352 1118.88 89.3352C1129.23 89.3352 1138.77 92.0436 1147.51 97.4602C1156.25 102.815 1163.23 110.91 1168.47 121.743C1173.7 132.515 1176.31 146.026 1176.31 162.276C1176.31 178.095 1173.76 191.452 1168.65 202.347C1163.6 213.18 1156.71 221.397 1147.97 226.999C1139.29 232.538 1129.56 235.308 1118.79 235.308C1111.16 235.308 1104.67 234.046 1099.31 231.523C1094.02 228.999 1089.68 225.829 1086.29 222.013C1082.91 218.135 1080.32 214.226 1078.54 210.287H1077.34V286.182H1038ZM1076.51 162.091C1076.51 170.524 1077.67 177.879 1080.01 184.158C1082.35 190.436 1085.74 195.33 1090.17 198.838C1094.6 202.285 1099.99 204.009 1106.33 204.009C1112.73 204.009 1118.15 202.254 1122.58 198.746C1127.01 195.176 1130.36 190.251 1132.64 183.973C1134.98 177.633 1136.15 170.339 1136.15 162.091C1136.15 153.904 1135.01 146.703 1132.73 140.486C1130.46 134.269 1127.1 129.406 1122.67 125.898C1118.24 122.389 1112.79 120.635 1106.33 120.635C1099.93 120.635 1094.51 122.328 1090.08 125.713C1085.71 129.098 1082.35 133.9 1080.01 140.116C1077.67 146.333 1076.51 153.658 1076.51 162.091ZM1241.07 43.9091V233H1201.74V43.9091H1241.07ZM1279.44 173.632V141.132L1409.44 83.8878V121.281L1320.43 157.013L1321.63 155.074V159.69L1320.43 157.751L1409.44 193.483V230.876L1279.44 173.632ZM1585.36 173.632L1455.36 230.876V193.483L1544.36 157.751L1543.16 159.69V155.074L1544.36 157.013L1455.36 121.281V83.8878L1585.36 141.132V173.632Z" fill="url(#paint2_linear_111_27)"/>
<defs>
<linearGradient id="paint0_linear_111_27" x1="218.198" y1="59.8943" x2="32.8166" y2="216.5" gradientUnits="userSpaceOnUse">
<stop stop-color="#A5D476"/>
<stop offset="1" stop-color="#2EBAC6"/>
</linearGradient>
<linearGradient id="paint1_linear_111_27" x1="343.198" y1="59.8943" x2="157.817" y2="216.5" gradientUnits="userSpaceOnUse">
<stop stop-color="#5A156E"/>
<stop offset="0.148958" stop-color="#5D2982"/>
<stop offset="1" stop-color="#6E9EF3"/>
</linearGradient>
<linearGradient id="paint2_linear_111_27" x1="375" y1="138" x2="1688" y2="138" gradientUnits="userSpaceOnUse">
<stop stop-color="#603D95"/>
<stop offset="1" stop-color="#35BBC1"/>
</linearGradient>
</defs>
</svg>
